
      Bullit.1968.1080.BluRay.x264.AC-3.mkv-Zen_Bud

Format                           : Matroska
Format version                   : Version 2
File size                        : 6.53 GiB
Duration                         : 1h 53mn
Overall bit rate                 : 8 214 Kbps
Writing application              : mkvmerge v5.0.1 ('Es ist Sommer') 
Writing library                  : libebml v1.2.2 + libmatroska v1.3.0

Video

Format                           : AVC
Format profile                   : High@L4.1
Format settings, CABAC           : Yes
Format settings, ReFrames        : 4 frames
Codec ID                         : V_MPEG4
Duration                         : 1h 53mn
Bit rate                         : 7 984 Kbps
Width                            : 1 920 pixels
Height                           : 1 080 pixels
Display aspect ratio             : 16:9
Frame rate                       : 23.976 fps
Color space                      : YUV
Chroma subsampling               : 4:2:0
Bit depth                        : 8 bits
Scan type                        : Progressive
Bits/(Pixel*Frame)               : 0.161
Stream size                      : 6.24 GiB (96%)
Writing library                  : x264 core 119 r2106 07efeb4
Encoding settings                : cabac=1 / ref=3 / deblock=1:0:0 / analyse=0x3:0x113 

Audio

Format                           : AC-3
Format profile                   : Dolby Digital
Duration                         : 1h 53mn
Bit rate mode                    : Constant
Bit rate                         : 192 Kbps
Channel(s)                       : 2 channels
Channel positions                : Front: L R
Sampling rate                    : 48.0 KHz
Bit depth                        : 16 bits
Compression mode                 : Lossy
Stream size                      : 156 MiB (2%)
Language                         : English


Text #1

Format                           : PGS
Language                         : English


Text #2

Format                           : PGS
Language                         : Danish


Text #3

Format                           : PGS
Language                         : Finnish

Text #4

Format                           : PGS
Language                         : Norwegian


Text #5

Format                           : PGS
Language                         : Swedish

=====================================================================================

An all guts, no glory San Francisco cop becomes determined to find the underworld 
kingpin that killed the witness in his protection. 

=====================================================================================
 
http://www.imagebam.com/image/26a8cc159364979 
http://www.imagebam.com/image/15a9b9159364985 
http://www.imagebam.com/image/b05a36159364990 
http://www.imagebam.com/image/daae72159364997 
http://www.imagebam.com/image/05565a159365004 
http://www.imagebam.com/image/0bc7a6159365010
